<svg id="Layer_1" data-name="Layer 1" xmlns="http://www.w3.org/2000/svg" viewBox="0 0 27.2443 15.3629"><defs><style>.cls-1{fill:white;}</style></defs><path class="cls-1" d="M0,0H1.4653C2.6558,0,3.2227.603,3.2227,1.8975v.4873c0,1.2046-.36,2.0932-1.8165,2.0932H.8525V8.0117H0ZM.8525,3.7593h.4766c.9082,0,1.04-.5572,1.04-1.39V1.94c0-.6489-.1416-1.2158-.9663-1.2158h-.55Z"/><path class="cls-1" d="M6.0737,2.7668V5.2214c0,.8557-.3867,1.2845-1.1826,1.2845-.8271,0-1.1294-.48-1.1294-1.2779v-2.46c0-.8273.4126-1.2618,1.168-1.2618C5.7192,1.5059,6.0737,1.9974,6.0737,2.7668ZM4.3418,2.7432V5.27c0,.5477.2178.7658.5762.7658.3779,0,.5757-.2115.5757-.7889V2.7436c0-.5169-.1949-.7649-.58-.7649S4.3418,2.2129,4.3418,2.7432Z"/><path class="cls-1" d="M7.1763,2.0506H6.312v-.48H8.6035v.48H7.7446v4.39H7.1763Z"/><path class="cls-1" d="M9.2881,2.0506H8.4238v-.48h2.2915v.48H9.8564v4.39H9.2881Z"/><path class="cls-1" d="M13.1323,4.0827H11.9341v1.882h1.36l-.0771.4764H11.3657v-4.87h1.835v.48H11.9341V3.6063h1.1982Z"/><path class="cls-1" d="M14.314,4.1668V6.4411h-.5684v-4.87h.9331c.8027,0,1.1973.3157,1.1973,1.1211v.2227c0,.6616-.2554.9323-.544,1.0253.3389.1145.4966.3473.4966.9987a11.7833,11.7833,0,0,0,.0523,1.5027h-.5538a10.4172,10.4172,0,0,1-.0561-1.4635c0-.6309-.0972-.8108-.6265-.8108Zm0-.44h.3486c.5078,0,.6406-.2676.6406-.788V2.722c0-.4448-.1328-.711-.6679-.711H14.314Z"/><path class="cls-1" d="M8.116,8.07H6.82V7.28h3.4375v.79H8.9685v7.2221H8.116Zm8.8644.0114H0v-.8H16.98Z"/><path class="cls-1" d="M11.45,12.7052H10.2519v2.064h1.36l-.0771.5224H9.6835V9.95h1.835v.5264H10.2519v1.706H11.45Z"/><path class="cls-1" d="M14.1855,13.7594v.1812c0,.6787-.1221,1.4223-1.0879,1.4223-.9248,0-1.083-.6557-1.083-1.44V11.2057c0-.8545.3667-1.3262,1.09-1.3262.896,0,1.0567.6367,1.0567,1.336v.2085h-.5772v-.251c0-.4229-.0659-.7749-.4883-.7749-.4009,0-.5014.3169-.5014.7881v2.7729c0,.5361.1167.8887.518.8887.4165,0,.4922-.3613.4922-.8648v-.2236Z"/><path class="cls-1" d="M14.7353,9.95h.5683v2.2144H16.415V9.95h.5683v5.3413H16.415V12.6871H15.3036v2.6045h-.5683Z"/><path class="cls-1" d="M2.64,9.2664c-.0136.114-.0312.26-.0381.3243l-.0149.1167-.1115.0312a2.6138,2.6138,0,0,0-.5206.21l-.1658.0855-.2556-.2008-.2555-.2021-.3412.3405-.3426.3405.2011.2565.2012.2564-.0856.1655a2.6089,2.6089,0,0,0-.2107.52l-.03.1112-.0571.0068c-.03.0041-.1768.0218-.3249.0394L.02,11.6991l.0027.4816.0041.4816.19.0231c.1047.0122.2488.03.3209.0379l.13.0163L.7,12.85a2.6554,2.6554,0,0,0,.2094.5209l.0869.1642-.2012.2564-.2011.2549.34.3405.3412.3419.246-.1926c.1346-.1059.2542-.1967.2637-.2036.01-.0054.034.0028.0557.019a2.8567,2.8567,0,0,0,.6892.2849l.0557.0136.0395.3256.0394.3256.4826-.0027.4825-.0041.0367-.2917c.02-.16.0367-.3039.0367-.32.0013-.0244.019-.0325.1142-.0583a2.6335,2.6335,0,0,0,.5219-.2116l.1659-.0855.2555.2008.2556.2021.3411-.34L5.7,14.0487l-.201-.2563-.2012-.2564.0857-.1655a2.6113,2.6113,0,0,0,.2107-.52l.03-.1112.3249-.038.3249-.038-.0028-.4829-.0041-.4817-.1835-.0217c-.1006-.0122-.246-.03-.3208-.0393l-.1373-.0163-.0312-.11a2.5908,2.5908,0,0,0-.2107-.521l-.0857-.1655.2012-.2551.2012-.255-.3412-.3419c-.2963-.2972-.3439-.3405-.3629-.3243-.0108.01-.1264.1-.2555.2021l-.2352.1845-.1659-.0868a2.6318,2.6318,0,0,0-.522-.2116c-.0951-.0258-.1128-.0339-.1141-.0583,0-.0163-.0163-.16-.0367-.32L3.63,9.067l-.4825-.004L2.6645,9.06Zm.8007,1.2658a1.6857,1.6857,0,0,1,1.3579,1.3553,2.22,2.22,0,0,1,0,.5861A1.6857,1.6857,0,0,1,3.4406,13.829a2.2371,2.2371,0,0,1-.5872,0,1.6858,1.6858,0,0,1-1.3581-1.3553,2.2288,2.2288,0,0,1,0-.5861,1.69,1.69,0,0,1,1.3471-1.354A2.321,2.321,0,0,1,3.4406,10.5322Z"/><path class="cls-1" d="M2.9648,12.1168c-.1414.4939-.26.905-.2624.9131-.0109.03.2393.1126.3371.114.0354,0,.0367-.0027.29-.8927.14-.49.2569-.9008.261-.913.004-.0163-.0123-.03-.0585-.05a1.0348,1.0348,0,0,0-.2705-.0706H3.2217Z"/><path class="cls-1" d="M2.1655,11.7709l-.4037.17-.0082.0555a1.92,1.92,0,0,0-.0041.2171l.0041.1615.4146.1736c.2284.0964.4228.1737.4323.175.0136,0,.0163-.0339.0136-.1465L2.61,12.4315,2.2838,12.3c-.1795-.0719-.3317-.1343-.3371-.1356a3.2022,3.2022,0,0,1,.3262-.1412l.3371-.1356.0041-.1451c.0027-.1317.0013-.1452-.02-.1438C2.58,11.6,2.3871,11.6773,2.1655,11.7709Z"/><path class="cls-1" d="M3.68,11.7424l.0041.1438.337.137c.1863.0747.3331.1384.3263.14s-.1577.0637-.3371.137l-.3262.1316-.0041.1452c-.0028.1126,0,.1465.0136.1465.01-.0013.2039-.0787.4322-.175l.4147-.1736.004-.1614a1.9166,1.9166,0,0,0-.004-.2171l-.0082-.057-.41-.1709c-.2271-.0937-.4187-.171-.4282-.171C3.68,11.5972,3.6771,11.6325,3.68,11.7424Z"/></svg>